<?xml version="1.0" encoding="UTF-8" standalone="no"?>
<svg
   xmlns:osb="http://www.openswatchbook.org/uri/2009/osb"
   xmlns:dc="http://purl.org/dc/elements/1.1/"
   xmlns:cc="http://creativecommons.org/ns#"
   xmlns:rdf="http://www.w3.org/1999/02/22-rdf-syntax-ns#"
   xmlns:svg="http://www.w3.org/2000/svg"
   xmlns="http://www.w3.org/2000/svg"
   xmlns:xlink="http://www.w3.org/1999/xlink"
   xmlns:sodipodi="http://sodipodi.sourceforge.net/DTD/sodipodi-0.dtd"
   xmlns:inkscape="http://www.inkscape.org/namespaces/inkscape"
   width="210mm"
   height="297mm"
   viewBox="0 0 210 297"
   version="1.1"
   id="svg8"
   inkscape:version="1.0.1 (3bc2e813f5, 2020-09-07)"
   sodipodi:docname="EuropeanFlag3.svg">
  <defs
     id="defs2">
    <rect
       x="23.977865"
       y="194.30339"
       width="116.16862"
       height="71.933594"
       id="rect72" />
    <rect
       x="21.083984"
       y="212.49349"
       width="124.85026"
       height="65.319011"
       id="rect1059" />
    <rect
       x="186.01959"
       y="204.19392"
       width="144.32554"
       height="117.59859"
       id="rect944" />
    <linearGradient
       id="linearGradient936"
       osb:paint="solid">
      <stop
         style="stop-color:#ffffff;stop-opacity:1;"
         offset="0"
         id="stop934" />
    </linearGradient>
    <rect
       x="86.788563"
       y="169.42426"
       width="137.72929"
       height="127.66502"
       id="rect83" />
    <rect
       x="110.36905"
       y="214.69048"
       width="77.107143"
       height="37.041667"
       id="rect77" />
    <rect
       x="111.125"
       y="185.96429"
       width="280.45834"
       height="179.91667"
       id="rect63" />
    <rect
       x="111.125"
       y="185.96429"
       width="280.45834"
       height="179.91667"
       id="rect63-2" />
    <rect
       x="111.125"
       y="185.96429"
       width="280.45834"
       height="179.91667"
       id="rect970" />
    <linearGradient
       inkscape:collect="always"
       xlink:href="#linearGradient936"
       id="linearGradient1063"
       gradientUnits="userSpaceOnUse"
       x1="205.51747"
       y1="254.58756"
       x2="302.63477"
       y2="254.58756" />
  </defs>
  <sodipodi:namedview
     id="base"
     pagecolor="#ffffff"
     bordercolor="#666666"
     borderopacity="1.0"
     inkscape:pageopacity="0.0"
     inkscape:pageshadow="2"
     inkscape:zoom="0.32"
     inkscape:cx="868.94538"
     inkscape:cy="-121.19818"
     inkscape:document-units="mm"
     inkscape:current-layer="layer1"
     inkscape:document-rotation="0"
     showgrid="false"
     showborder="true"
     showguides="false"
     inkscape:snap-bbox="true"
     inkscape:snap-global="false"
     inkscape:window-width="1920"
     inkscape:window-height="1001"
     inkscape:window-x="2391"
     inkscape:window-y="-9"
     inkscape:window-maximized="1"
     borderlayer="true" />
  <metadata
     id="metadata5">
    <rdf:RDF>
      <cc:Work
         rdf:about="">
        <dc:format>image/svg+xml</dc:format>
        <dc:type
           rdf:resource="http://purl.org/dc/dcmitype/StillImage" />
        <dc:title />
      </cc:Work>
    </rdf:RDF>
  </metadata>
  <g
     inkscape:label="Layer 1"
     inkscape:groupmode="layer"
     id="layer1">
    <rect
       style="fill:#0000ff;stroke-width:0.268802"
       id="rect14"
       width="170"
       height="170"
       x="0"
       y="0">
      <title
         id="title87">Text</title>
    </rect>
    <path
       sodipodi:type="star"
       style="fill:#ffff00;stroke-width:0.264583"
       id="path37"
       sodipodi:sides="5"
       sodipodi:cx="281.27795"
       sodipodi:cy="42.933548"
       sodipodi:r1="32.933853"
       sodipodi:r2="11.716317"
       sodipodi:arg1="0.94677327"
       sodipodi:arg2="1.5750918"
       inkscape:flatsided="false"
       inkscape:rounded="0"
       inkscape:randomized="0"
       d="M 300.52136,69.660501 281.22763,54.649757 261.80565,69.494197 270.11963,46.506192 250,32.621979 l 24.43205,0.803375 6.98737,-23.4253553 6.78586,23.4845183 24.43806,-0.593453 -20.23816,13.710855 z"
       inkscape:transform-center-x="-0.013954532"
       inkscape:transform-center-y="-1.0403195"
       transform="matrix(0.31926781,0,0,0.33523017,-4.8169534,1.6476988)" />
    <text
       xml:space="preserve"
       id="text75"
       style="fill:black;fill-opacity:1;line-height:1.25;stroke:none;font-family:sans-serif;font-style:normal;font-weight:normal;font-size:10.58333333px;white-space:pre;shape-inside:url(#rect77);" />
    <text
       xml:space="preserve"
       id="text81"
       style="fill:black;fill-opacity:1;line-height:1.25;stroke:none;font-family:sans-serif;font-style:normal;font-weight:normal;font-size:10.58333333px;white-space:pre;shape-inside:url(#rect83);" />
    <text
       xml:space="preserve"
       id="text942"
       style="fill:black;fill-opacity:1;line-height:1.25;stroke:none;font-family:sans-serif;font-style:normal;font-weight:normal;font-size:10.58333333px;white-space:pre;shape-inside:url(#rect944);" />
    <text
       xml:space="preserve"
       id="text1057"
       style="font-size:50.8px;line-height:1.25;font-family:sans-serif;letter-spacing:0px;white-space:pre;shape-inside:url(#rect1059);fill:#ffffff;"
       transform="matrix(1.0000081,0,0,1,-165.37332,21.946676)"><tspan
         x="21.083984"
         y="257.44023"><tspan
           style="font-size:50.8px;shape-inside:url(#rect1059)">EU</tspan></tspan></text>
    <path
       sodipodi:type="star"
       style="fill:#ffff00;stroke-width:0.264583"
       id="path42"
       sodipodi:sides="5"
       sodipodi:cx="281.27795"
       sodipodi:cy="42.933548"
       sodipodi:r1="32.933853"
       sodipodi:r2="11.716317"
       sodipodi:arg1="0.94677327"
       sodipodi:arg2="1.5750918"
       inkscape:flatsided="false"
       inkscape:rounded="0"
       inkscape:randomized="0"
       d="M 300.52136,69.660501 281.22763,54.649757 261.80565,69.494197 270.11963,46.506192 250,32.621979 l 24.43205,0.803375 6.98737,-23.4253553 6.78586,23.4845183 24.43806,-0.593453 -20.23816,13.710855 z"
       inkscape:transform-center-x="-0.013954532"
       inkscape:transform-center-y="-1.0403195"
       transform="matrix(0.31926781,0,0,0.33523017,-74.816953,71.647699)" />
    <path
       sodipodi:type="star"
       style="fill:#ffff00;stroke-width:0.264583"
       id="path44"
       sodipodi:sides="5"
       sodipodi:cx="281.27795"
       sodipodi:cy="42.933548"
       sodipodi:r1="32.933853"
       sodipodi:r2="11.716317"
       sodipodi:arg1="0.94677327"
       sodipodi:arg2="1.5750918"
       inkscape:flatsided="false"
       inkscape:rounded="0"
       inkscape:randomized="0"
       d="M 300.52136,69.660501 281.22763,54.649757 261.80565,69.494197 270.11963,46.506192 250,32.621979 l 24.43205,0.803375 6.98737,-23.4253553 6.78586,23.4845183 24.43806,-0.593453 -20.23816,13.710855 z"
       inkscape:transform-center-x="-0.013954532"
       inkscape:transform-center-y="-1.0403195"
       transform="matrix(0.31926781,0,0,0.33523017,65.183047,71.647699)" />
    <path
       sodipodi:type="star"
       style="fill:#ffff00;stroke-width:0.264583"
       id="path46"
       sodipodi:sides="5"
       sodipodi:cx="281.27795"
       sodipodi:cy="42.933548"
       sodipodi:r1="32.933853"
       sodipodi:r2="11.716317"
       sodipodi:arg1="0.94677327"
       sodipodi:arg2="1.5750918"
       inkscape:flatsided="false"
       inkscape:rounded="0"
       inkscape:randomized="0"
       d="M 300.52136,69.660501 281.22763,54.649757 261.80565,69.494197 270.11963,46.506192 250,32.621979 l 24.43205,0.803375 6.98737,-23.4253553 6.78586,23.4845183 24.43806,-0.593453 -20.23816,13.710855 z"
       inkscape:transform-center-x="-0.013954532"
       inkscape:transform-center-y="-1.0403195"
       transform="matrix(0.31926781,0,0,0.33523017,-4.8169534,141.6477)" />
    <path
       sodipodi:type="star"
       style="fill:#ffff00;stroke-width:0.264583"
       id="path48"
       sodipodi:sides="5"
       sodipodi:cx="281.27795"
       sodipodi:cy="42.933548"
       sodipodi:r1="32.933853"
       sodipodi:r2="11.716317"
       sodipodi:arg1="0.94677327"
       sodipodi:arg2="1.5750918"
       inkscape:flatsided="false"
       inkscape:rounded="0"
       inkscape:randomized="0"
       d="M 300.52136,69.660501 281.22763,54.649757 261.80565,69.494197 270.11963,46.506192 250,32.621979 l 24.43205,0.803375 6.98737,-23.4253553 6.78586,23.4845183 24.43806,-0.593453 -20.23816,13.710855 z"
       inkscape:transform-center-x="-0.013954532"
       inkscape:transform-center-y="-1.0403195"
       transform="matrix(0.31926781,0,0,0.33523017,-42.850808,11.569573)" />
    <path
       sodipodi:type="star"
       style="fill:#ffff00;stroke-width:0.264583"
       id="path50"
       sodipodi:sides="5"
       sodipodi:cx="281.27795"
       sodipodi:cy="42.933548"
       sodipodi:r1="32.933853"
       sodipodi:r2="11.716317"
       sodipodi:arg1="0.94677327"
       sodipodi:arg2="1.5750918"
       inkscape:flatsided="false"
       inkscape:rounded="0"
       inkscape:randomized="0"
       d="M 300.52136,69.660501 281.22763,54.649757 261.80565,69.494197 270.11963,46.506192 250,32.621979 l 24.43205,0.803375 6.98737,-23.4253553 6.78586,23.4845183 24.43806,-0.593453 -20.23816,13.710855 z"
       inkscape:transform-center-x="-0.013954532"
       inkscape:transform-center-y="-1.0403195"
       transform="matrix(0.31926781,0,0,0.33523017,-65.588438,38.027907)" />
    <path
       sodipodi:type="star"
       style="fill:#ffff00;stroke-width:0.264583"
       id="path52"
       sodipodi:sides="5"
       sodipodi:cx="281.27795"
       sodipodi:cy="42.933548"
       sodipodi:r1="32.933853"
       sodipodi:r2="11.716317"
       sodipodi:arg1="0.94677327"
       sodipodi:arg2="1.5750918"
       inkscape:flatsided="false"
       inkscape:rounded="0"
       inkscape:randomized="0"
       d="M 300.52136,69.660501 281.22763,54.649757 261.80565,69.494197 270.11963,46.506192 250,32.621979 l 24.43205,0.803375 6.98737,-23.4253553 6.78586,23.4845183 24.43806,-0.593453 -20.23816,13.710855 z"
       inkscape:transform-center-x="-0.013954532"
       inkscape:transform-center-y="-1.0403195"
       transform="matrix(0.31926781,0,0,0.33523017,55.54112,108.72127)" />
    <path
       sodipodi:type="star"
       style="fill:#ffff00;stroke-width:0.264583"
       id="path54"
       sodipodi:sides="5"
       sodipodi:cx="281.27795"
       sodipodi:cy="42.933548"
       sodipodi:r1="32.933853"
       sodipodi:r2="11.716317"
       sodipodi:arg1="0.94677327"
       sodipodi:arg2="1.5750918"
       inkscape:flatsided="false"
       inkscape:rounded="0"
       inkscape:randomized="0"
       d="M 300.52136,69.660501 281.22763,54.649757 261.80565,69.494197 270.11963,46.506192 250,32.621979 l 24.43205,0.803375 6.98737,-23.4253553 6.78586,23.4845183 24.43806,-0.593453 -20.23816,13.710855 z"
       inkscape:transform-center-x="-0.013954532"
       inkscape:transform-center-y="-1.0403195"
       transform="matrix(0.31926781,0,0,0.33523017,-64.348202,108.72127)" />
    <path
       sodipodi:type="star"
       style="fill:#ffff00;stroke-width:0.264583"
       id="path56"
       sodipodi:sides="5"
       sodipodi:cx="281.27795"
       sodipodi:cy="42.933548"
       sodipodi:r1="32.933853"
       sodipodi:r2="11.716317"
       sodipodi:arg1="0.94677327"
       sodipodi:arg2="1.5750918"
       inkscape:flatsided="false"
       inkscape:rounded="0"
       inkscape:randomized="0"
       d="M 300.52136,69.660501 281.22763,54.649757 261.80565,69.494197 270.11963,46.506192 250,32.621979 l 24.43205,0.803375 6.98737,-23.4253553 6.78586,23.4845183 24.43806,-0.593453 -20.23816,13.710855 z"
       inkscape:transform-center-x="-0.013954532"
       inkscape:transform-center-y="-1.0403195"
       transform="matrix(0.31926781,0,0,0.33523017,31.563254,131.45889)" />
    <path
       sodipodi:type="star"
       style="fill:#ffff00;stroke-width:0.264583"
       id="path58"
       sodipodi:sides="5"
       sodipodi:cx="281.27795"
       sodipodi:cy="42.933548"
       sodipodi:r1="32.933853"
       sodipodi:r2="11.716317"
       sodipodi:arg1="0.94677327"
       sodipodi:arg2="1.5750918"
       inkscape:flatsided="false"
       inkscape:rounded="0"
       inkscape:randomized="0"
       d="M 300.52136,69.660501 281.22763,54.649757 261.80565,69.494197 270.11963,46.506192 250,32.621979 l 24.43205,0.803375 6.98737,-23.4253553 6.78586,23.4845183 24.43806,-0.593453 -20.23816,13.710855 z"
       inkscape:transform-center-x="-0.013954532"
       inkscape:transform-center-y="-1.0403195"
       transform="matrix(0.31926781,0,0,0.33523017,-40.78375,130.63207)" />
    <path
       sodipodi:type="star"
       style="fill:#ffff00;stroke-width:0.264583"
       id="path62"
       sodipodi:sides="5"
       sodipodi:cx="281.27795"
       sodipodi:cy="42.933548"
       sodipodi:r1="32.933853"
       sodipodi:r2="11.716317"
       sodipodi:arg1="0.94677327"
       sodipodi:arg2="1.5750918"
       inkscape:flatsided="false"
       inkscape:rounded="0"
       inkscape:randomized="0"
       d="M 300.52136,69.660501 281.22763,54.649757 261.80565,69.494197 270.11963,46.506192 250,32.621979 l 24.43205,0.803375 6.98737,-23.4253553 6.78586,23.4845183 24.43806,-0.593453 -20.23816,13.710855 z"
       inkscape:transform-center-x="-0.013954532"
       inkscape:transform-center-y="-1.0403195"
       transform="matrix(0.31926781,0,0,0.33523017,33.630312,12.396396)" />
    <path
       sodipodi:type="star"
       style="fill:#ffff00;stroke-width:0.264583"
       id="path64"
       sodipodi:sides="5"
       sodipodi:cx="281.27795"
       sodipodi:cy="42.933548"
       sodipodi:r1="32.933853"
       sodipodi:r2="11.716317"
       sodipodi:arg1="0.94677327"
       sodipodi:arg2="1.5750918"
       inkscape:flatsided="false"
       inkscape:rounded="0"
       inkscape:randomized="0"
       d="M 300.52136,69.660501 281.22763,54.649757 261.80565,69.494197 270.11963,46.506192 250,32.621979 l 24.43205,0.803375 6.98737,-23.4253553 6.78586,23.4845183 24.43806,-0.593453 -20.23816,13.710855 z"
       inkscape:transform-center-x="-0.013954532"
       inkscape:transform-center-y="-1.0403195"
       transform="matrix(0.31926781,0,0,0.33523017,57.194765,38.027908)" />
    <text
       xml:space="preserve"
       id="text70"
       style="font-size:50.8px;line-height:1.25;font-family:sans-serif;letter-spacing:0px;white-space:pre;shape-inside:url(#rect72);"
       transform="translate(26.871745,-133.5319)"><tspan
         x="23.978516"
         y="239.24883"><tspan
           style="fill:#ffffff">EU</tspan></tspan></text>
  </g>
</svg>
